<?xml version="1.0" encoding="UTF-8"?><svg id="b" xmlns="http://www.w3.org/2000/svg" viewBox="0 0 202.72 74.93"><g id="c"><g><path d="M0,36.48c0-7.64,4.18-11.47,9.97-11.47,4.44,0,7.73,2.2,8.56,6.42h-1.95c-.83-3-3.23-4.7-6.61-4.7-4.7,0-8.02,3.26-8.02,9.74s3.32,9.78,8.02,9.78c3.39,0,5.78-1.69,6.61-4.73h1.95c-.83,4.25-4.12,6.45-8.56,6.45-5.78,0-9.97-3.83-9.97-11.5Z" style="fill:#057696;"/><path d="M20.43,39.36c0-5.88,3.77-8.63,7.89-8.63s7.86,2.75,7.86,8.63-3.77,8.63-7.86,8.63-7.89-2.75-7.89-8.63Zm13.93,0c0-4.86-2.94-7.03-6.04-7.03s-6.04,2.17-6.04,7.03,2.94,7.03,6.04,7.03,6.04-2.17,6.04-7.03Z" style="fill:#057696;"/><path d="M46.41,32.36c-3.32,0-5.34,2.11-5.34,5.46v9.84h-1.88V31.05h1.88v3.19h.03c.29-.99,1.88-3.51,5.85-3.51,3.26,0,6.04,1.69,6.04,6.77v10.16h-1.88v-9.84c0-3.35-1.37-5.46-4.7-5.46Z" style="fill:#057696;"/><path d="M63.99,32.36c-3.32,0-5.34,2.11-5.34,5.46v9.84h-1.88V31.05h1.88v3.19h.03c.29-.99,1.88-3.51,5.85-3.51,3.26,0,6.04,1.69,6.04,6.77v10.16h-1.88v-9.84c0-3.35-1.37-5.46-4.7-5.46Z" style="fill:#057696;"/><path d="M73.55,39.42c0-6.01,3.39-8.69,7.6-8.69s7.25,2.78,7.25,8.08c0,.54-.03,.86-.1,1.15h-12.91c.13,4.31,2.2,6.49,5.94,6.49,2.01,0,4.19-.64,5.08-3.23h1.76c-1.15,3.64-3.96,4.76-6.87,4.76-4.66,0-7.76-2.84-7.76-8.56Zm13.04-.96c-.03-4.09-2.17-6.2-5.46-6.2s-5.53,2.01-5.72,6.2h11.18Z" style="fill:#057696;"/><path d="M90.75,39.39c0-5.78,3.61-8.66,7.92-8.66,2.97,0,6.29,1.37,6.9,5.72h-1.72c-.54-3-2.91-4.09-5.21-4.09-3.42,0-6.07,2.33-6.07,7.03s2.65,6.97,6.07,6.97c2.3,0,4.66-1.05,5.21-4.19h1.72c-.61,4.44-3.9,5.82-6.9,5.82-4.31,0-7.92-2.81-7.92-8.6Z" style="fill:#057696;"/><path d="M109.96,44.12v-11.47h-2.65v-1.6h2.65v-4.12h1.88v4.12h3.32v1.6h-3.32v11.05c0,1.95,.7,2.59,2.52,2.59,.38,0,.67,0,1.05-.06v1.5c-.48,.1-1.02,.16-1.63,.16-2.2,0-3.83-.89-3.83-3.77Z" style="fill:#057696;"/></g><g><path d="M157.49,52.25h1.95v20.61h11.82v1.76h-13.77v-22.36Z" style="fill:#057696;"/><path d="M173.92,52.98c0-.73,.61-1.31,1.31-1.31s1.31,.57,1.31,1.31-.61,1.31-1.31,1.31-1.31-.61-1.31-1.31Zm.35,5.02h1.89v16.61h-1.89v-16.61Z" style="fill:#057696;"/><path d="M185.04,51.74h1.57v1.53h-1.08c-1.82,0-2.53,.61-2.53,2.56v2.17h3.51v1.56h-3.51v15.05h-1.88v-15.05h-2.3v-1.56h2.3v-2.52c0-2.88,1.69-3.74,3.93-3.74Z" style="fill:#057696;"/><path d="M187.86,66.37c0-6.01,3.39-8.69,7.6-8.69s7.25,2.78,7.25,8.08c0,.54-.03,.86-.1,1.15h-12.91c.13,4.31,2.2,6.49,5.94,6.49,2.01,0,4.19-.64,5.08-3.23h1.76c-1.15,3.64-3.96,4.76-6.87,4.76-4.66,0-7.77-2.84-7.77-8.56Zm13.04-.96c-.03-4.09-2.17-6.2-5.46-6.2s-5.53,2.01-5.72,6.2h11.18Z" style="fill:#057696;"/></g><path d="M127.69,42.2c11.26-6.95,19.26-11.68,19.36-21.68,0-9.05-6.52-15.15-16.42-15.15s-16.94,6-16.94,17.26v1.47h-6.21v-1.89c0-13.16,8.73-22.21,23.15-22.21s22.63,8.53,22.63,20.31-8.95,18-20.31,24.94c-11.79,7.16-19.36,13.58-19.36,23.15v.84h40.31v5.37h-47.25v-2.74c0-12.84,6.1-20.42,21.05-29.68Z" style="fill:#057696;"/></g></svg>